<svg width="214" height="58" viewBox="0 0 214 58" fill="none" xmlns="http://www.w3.org/2000/svg">
<rect x="16" y="9" width="40" height="40" rx="6" fill="url(#paint0_linear_1_5023)"/>
<path d="M68.288 37.824L70.592 35.16C71.96 36.48 73.352 37.476 74.768 38.148C76.208 38.796 77.708 39.12 79.268 39.12C81.068 39.12 82.532 38.724 83.66 37.932C84.812 37.14 85.388 36.132 85.388 34.908C85.388 33.804 84.992 32.952 84.2 32.352C83.408 31.728 82.1 31.26 80.276 30.948L76.064 30.264C73.76 29.88 72.032 29.148 70.88 28.068C69.752 26.964 69.188 25.512 69.188 23.712C69.188 21.528 70.04 19.776 71.744 18.456C73.448 17.136 75.692 16.476 78.476 16.476C80.276 16.476 82.064 16.776 83.84 17.376C85.616 17.952 87.212 18.792 88.628 19.896L86.54 22.776C85.172 21.744 83.804 20.976 82.436 20.472C81.068 19.944 79.688 19.68 78.296 19.68C76.664 19.68 75.344 20.028 74.336 20.724C73.328 21.42 72.824 22.32 72.824 23.424C72.824 24.456 73.172 25.248 73.868 25.8C74.564 26.328 75.716 26.724 77.324 26.988L81.392 27.636C84.032 28.068 85.976 28.86 87.224 30.012C88.496 31.14 89.132 32.676 89.132 34.62C89.132 35.772 88.892 36.828 88.412 37.788C87.932 38.748 87.248 39.564 86.36 40.236C85.496 40.908 84.44 41.436 83.192 41.82C81.944 42.18 80.576 42.36 79.088 42.36C77.072 42.36 75.128 41.964 73.256 41.172C71.384 40.38 69.728 39.264 68.288 37.824ZM92.2021 42V16.8L95.8021 16.008V25.512C96.5221 24.792 97.3381 24.252 98.2501 23.892C99.1861 23.508 100.206 23.316 101.31 23.316C103.398 23.316 105.114 23.988 106.458 25.332C107.802 26.652 108.474 28.368 108.474 30.48V42H104.874V31.092C104.874 29.652 104.454 28.524 103.614 27.708C102.798 26.868 101.706 26.448 100.338 26.448C99.3781 26.448 98.5021 26.652 97.7101 27.06C96.9421 27.468 96.3061 28.056 95.8021 28.824V42H92.2021ZM111.8 32.82C111.8 31.5 112.04 30.264 112.52 29.112C113.024 27.936 113.708 26.928 114.572 26.088C115.436 25.224 116.444 24.552 117.596 24.072C118.772 23.568 120.02 23.316 121.34 23.316C122.66 23.316 123.896 23.568 125.048 24.072C126.224 24.552 127.232 25.224 128.072 26.088C128.936 26.928 129.608 27.936 130.088 29.112C130.592 30.264 130.844 31.5 130.844 32.82C130.844 34.164 130.592 35.424 130.088 36.6C129.608 37.752 128.936 38.76 128.072 39.624C127.232 40.464 126.224 41.136 125.048 41.64C123.896 42.12 122.66 42.36 121.34 42.36C120.02 42.36 118.772 42.12 117.596 41.64C116.444 41.136 115.436 40.464 114.572 39.624C113.708 38.76 113.024 37.752 112.52 36.6C112.04 35.424 111.8 34.164 111.8 32.82ZM121.34 39.192C122.996 39.192 124.4 38.58 125.552 37.356C126.728 36.108 127.316 34.596 127.316 32.82C127.316 31.044 126.728 29.544 125.552 28.32C124.4 27.096 122.996 26.484 121.34 26.484C119.684 26.484 118.268 27.096 117.092 28.32C115.916 29.544 115.328 31.044 115.328 32.82C115.328 34.596 115.904 36.108 117.056 37.356C118.232 38.58 119.66 39.192 121.34 39.192ZM134.249 49.452V23.676H137.813V25.44C138.557 24.768 139.409 24.264 140.369 23.928C141.329 23.568 142.349 23.388 143.429 23.388C144.725 23.388 145.937 23.64 147.065 24.144C148.193 24.624 149.165 25.284 149.981 26.124C150.821 26.964 151.481 27.96 151.961 29.112C152.441 30.264 152.681 31.5 152.681 32.82C152.681 34.14 152.441 35.388 151.961 36.564C151.481 37.716 150.821 38.712 149.981 39.552C149.165 40.392 148.181 41.064 147.029 41.568C145.877 42.048 144.653 42.288 143.357 42.288C142.349 42.288 141.365 42.132 140.405 41.82C139.469 41.508 138.617 41.064 137.849 40.488V49.452H134.249ZM142.961 26.52C141.929 26.52 140.969 26.712 140.081 27.096C139.193 27.48 138.449 28.02 137.849 28.716V36.996C138.425 37.668 139.157 38.196 140.045 38.58C140.957 38.964 141.929 39.156 142.961 39.156C144.713 39.156 146.177 38.556 147.353 37.356C148.553 36.156 149.153 34.656 149.153 32.856C149.153 31.056 148.553 29.556 147.353 28.356C146.153 27.132 144.689 26.52 142.961 26.52ZM156.116 42V16.8L159.716 16.008V31.74L168.608 23.676H172.82L163.388 32.28L173.324 42H168.572L159.716 33.36V42H156.116ZM180.088 42.324C178.096 42.324 176.476 41.808 175.228 40.776C173.98 39.744 173.356 38.4 173.356 36.744C173.356 35.016 174.016 33.66 175.336 32.676C176.656 31.668 178.468 31.164 180.772 31.164C181.66 31.164 182.524 31.26 183.364 31.452C184.204 31.62 185.008 31.86 185.776 32.172V30.228C185.776 28.932 185.392 27.96 184.624 27.312C183.856 26.664 182.752 26.34 181.312 26.34C180.472 26.34 179.596 26.472 178.684 26.736C177.772 26.976 176.752 27.36 175.624 27.888L174.292 25.188C175.66 24.54 176.956 24.072 178.18 23.784C179.404 23.472 180.616 23.316 181.816 23.316C184.192 23.316 186.028 23.892 187.324 25.044C188.644 26.172 189.304 27.78 189.304 29.868V42H185.776V40.416C184.96 41.064 184.084 41.544 183.148 41.856C182.212 42.168 181.192 42.324 180.088 42.324ZM176.812 36.672C176.812 37.56 177.184 38.28 177.928 38.832C178.696 39.384 179.692 39.66 180.916 39.66C181.876 39.66 182.764 39.516 183.58 39.228C184.396 38.94 185.128 38.508 185.776 37.932V34.764C185.08 34.38 184.348 34.104 183.58 33.936C182.812 33.744 181.972 33.648 181.06 33.648C179.764 33.648 178.732 33.924 177.964 34.476C177.196 35.028 176.812 35.76 176.812 36.672Z" fill="#0C2146"/>
<path d="M25.9866 36.448L28.6426 33.12C29.944 34.2507 31.192 35.0827 32.3866 35.616C33.6026 36.128 34.8826 36.384 36.2266 36.384C37.6133 36.384 38.7226 36.128 39.5546 35.616C40.3866 35.104 40.8026 34.4213 40.8026 33.568C40.8026 32.8 40.5146 32.2027 39.9386 31.776C39.384 31.3493 38.4453 31.0293 37.1226 30.816L32.6746 30.048C30.7546 29.728 29.2933 29.056 28.2906 28.032C27.3093 27.008 26.8186 25.6853 26.8186 24.064C26.8186 21.9733 27.608 20.32 29.1866 19.104C30.7866 17.888 32.9413 17.28 35.6506 17.28C37.272 17.28 38.904 17.5573 40.5466 18.112C42.2106 18.6667 43.6613 19.4347 44.8986 20.416L42.4026 23.872C41.208 22.9547 40.0346 22.2827 38.8826 21.856C37.7306 21.408 36.5466 21.184 35.3306 21.184C34.0933 21.184 33.1013 21.4187 32.3546 21.888C31.608 22.336 31.2346 22.944 31.2346 23.712C31.2346 24.3947 31.48 24.928 31.9706 25.312C32.4613 25.696 33.2826 25.9733 34.4346 26.144L38.6586 26.848C40.8773 27.2107 42.5413 27.9253 43.6506 28.992C44.7813 30.0373 45.3466 31.424 45.3466 33.152C45.3466 35.328 44.4826 37.0667 42.7546 38.368C41.048 39.6693 38.7653 40.32 35.9066 40.32C34.1146 40.32 32.344 39.9787 30.5946 39.296C28.8666 38.6133 27.3306 37.664 25.9866 36.448Z" fill="white"/>
<defs>
<linearGradient id="paint0_linear_1_5023" x1="16" y1="29" x2="56" y2="29" gradientUnits="userSpaceOnUse">
<stop stop-color="#2979FF"/>
<stop offset="1" stop-color="#4C589E"/>
</linearGradient>
</defs>
</svg>
